<svg id="Capa_1" enable-background="new 0 0 512 512" height="512" viewBox="0 0 512 512" width="512" xmlns="http://www.w3.org/2000/svg"><path d="m246.707 411.63c0 55.43-44.94 100.37-100.361 100.37-.48 0-.95 0-1.43-.01-54.19-.75-98.361-45.1-98.911-99.3-.4-38.73 21.13-72.46 52.93-89.54l.05-275.75c0-26.17 21.2-47.38 47.36-47.4h.04c26.15 0 47.36 21.18 47.4 47.33l.4 277.12c31.282 18.21 52.522 52.73 52.522 87.18z" fill="#c0f6ff"/><path d="m246.707 411.63c0 55.43-44.94 100.37-100.361 100.37v-512h.04c26.15 0 47.36 21.18 47.4 47.33l.4 277.12c31.281 18.21 52.521 52.73 52.521 87.18z" fill="#75eeff"/><path d="m200.787 413.01c0 30.02-24.42 54.44-54.44 54.44-30.01 0-54.43-24.42-54.43-54.44 0-24.81 16.69-45.81 39.43-52.34v-312.02c0-8.29 6.72-15 15-15 8.29 0 15 6.71 15 15v312.02c22.75 6.53 39.44 27.53 39.44 52.34z" fill="#ff415b"/><g fill="#fff24c"><path d="m396.688 118.77c0 27.26-22.18 49.44-49.44 49.44s-49.43-22.18-49.43-49.44 22.17-49.44 49.43-49.44 49.44 22.18 49.44 49.44z"/><path d="m362.248 203.21v19.32c0 8.29-6.71 15-15 15-8.28 0-15-6.71-15-15v-19.32c0-8.29 6.72-15 15-15 8.29 0 15 6.71 15 15z"/><path d="m362.248 15v19.33c0 8.28-6.71 15-15 15-8.28 0-15-6.72-15-15v-19.33c0-8.28 6.72-15 15-15 8.29 0 15 6.72 15 15z"/><path d="m277.824 118.767c0-8.284-6.716-15-15-15h-19.322c-8.284 0-15 6.716-15 15s6.716 15 15 15h19.322c8.284 0 15-6.716 15-15z"/></g><path d="m451 103.767h-19.323c-8.284 0-15 6.716-15 15s6.716 15 15 15h19.323c8.284 0 15-6.716 15-15s-6.716-15-15-15z" fill="#ffd213"/><path d="m298.159 167.869c-5.859-5.858-15.357-5.857-21.214.001l-13.664 13.666c-5.857 5.858-5.857 15.355.001 21.213 2.93 2.929 6.768 4.393 10.607 4.393s7.679-1.465 10.608-4.394l13.664-13.666c5.856-5.858 5.855-15.355-.002-21.213z" fill="#fff24c"/><path d="m406.949 74.059c3.839 0 7.679-1.465 10.607-4.395l13.663-13.666c5.857-5.858 5.857-15.356-.002-21.213-5.857-5.856-15.356-5.857-21.213.002l-13.663 13.666c-5.857 5.858-5.856 15.356.002 21.213 2.929 2.929 6.767 4.393 10.606 4.393z" fill="#ffd213"/><path d="m276.945 69.665c2.929 2.929 6.769 4.394 10.608 4.394s7.677-1.464 10.606-4.393c5.858-5.857 5.859-15.355.002-21.213l-13.664-13.666c-5.857-5.858-15.356-5.858-21.213-.001-5.858 5.857-5.859 15.355-.002 21.213z" fill="#fff24c"/><path d="m417.556 167.871c-5.857-5.859-15.356-5.859-21.213-.002-5.858 5.857-5.859 15.354-.002 21.213l13.663 13.666c2.929 2.93 6.769 4.395 10.607 4.395s7.677-1.464 10.606-4.393c5.858-5.857 5.859-15.354.002-21.213z" fill="#ffd213"/><path d="m397.968 350.19c-6.4 5.27-15.85 4.36-21.12-2.04l-14.6-17.73v166.58c0 8.28-6.71 15-15 15-8.28 0-15-6.72-15-15v-166.58l-14.6 17.73c-2.96 3.6-7.26 5.47-11.59 5.47-3.35 0-6.73-1.13-9.52-3.43-6.4-5.26-7.31-14.72-2.05-21.11l41.18-50c2.85-3.46 7.1-5.47 11.58-5.47s8.73 2.01 11.58 5.47l41.18 50c5.27 6.39 4.35 15.85-2.04 21.11z" fill="#8f7e77"/><path d="m347.248 49.33v-49.33c8.29 0 15 6.72 15 15v19.33c0 8.28-6.71 15-15 15z" fill="#ffd213"/><path d="m347.248 237.53v-49.32c8.29 0 15 6.71 15 15v19.32c0 8.29-6.71 15-15 15z" fill="#ffd213"/><path d="m347.248 168.21v-98.88c27.26 0 49.44 22.18 49.44 49.44s-22.18 49.44-49.44 49.44z" fill="#ffd213"/><path d="m397.968 350.19c-6.4 5.27-15.85 4.36-21.12-2.04l-14.6-17.73v166.58c0 8.28-6.71 15-15 15v-238.39c4.48 0 8.73 2.01 11.58 5.47l41.18 50c5.27 6.39 4.35 15.85-2.04 21.11z" fill="#7f6d67"/><path d="m200.787 413.01c0 30.02-24.42 54.44-54.44 54.44v-433.8c8.29 0 15 6.71 15 15v312.02c22.75 6.53 39.44 27.53 39.44 52.34z" fill="#e30058"/></svg>