<?xml version="1.0" encoding="iso-8859-1"?>
<!-- Generator: Adobe Illustrator 19.0.0, SVG Export Plug-In . SVG Version: 6.00 Build 0)  -->
<svg version="1.1" id="Capa_1" xmlns="http://www.w3.org/2000/svg" xmlns:xlink="http://www.w3.org/1999/xlink" x="0px" y="0px"
	 viewBox="0 0 512 512" style="enable-background:new 0 0 512 512;" xml:space="preserve">
<path style="fill:#0481BF;" d="M84.773,218.568c-2.792,0-5.078-2.284-5.078-5.075v-58.805c0-2.791-2.285-5.075-5.078-5.075H53.896
	c-2.792,0-5.078,2.284-5.078,5.075v58.805c0,2.792-2.285,5.075-5.078,5.075H12.424c-2.793,0-3.663,1.793-1.933,3.985l50.621,64.133
	c1.729,2.191,4.56,2.191,6.29,0l50.62-64.133c1.729-2.191,0.86-3.985-1.933-3.985L84.773,218.568L84.773,218.568z"/>
<path style="fill:#A2E8F9;" d="M223.591,337.121V37.465c0-16.549-13.536-29.965-30.233-29.965s-30.233,13.416-30.233,29.965V337.12
	c-35.286,12.348-60.578,45.677-60.578,84.875c0,49.707,40.657,90.005,90.81,90.005c50.154,0,90.812-40.297,90.812-90.005
	C284.168,382.797,258.876,349.47,223.591,337.121z"/>
<g>
	<path style="fill:#0481BF;" d="M187.568,169.21h-24.443v15h24.443c4.142,0,7.5-3.358,7.5-7.5
		C195.068,172.568,191.71,169.21,187.568,169.21z"/>
	<path style="fill:#0481BF;" d="M187.568,210.013h-24.443v15h24.443c4.142,0,7.5-3.358,7.5-7.5S191.71,210.013,187.568,210.013z"/>
	<path style="fill:#0481BF;" d="M187.568,250.816h-24.443v15h24.443c4.142,0,7.5-3.358,7.5-7.5
		C195.068,254.174,191.71,250.816,187.568,250.816z"/>
</g>
<path style="fill:#EF5050;" d="M210.68,376.07c-3.559-1.303-6.844-3.081-9.822-5.222v-45.462c0-4.142-3.358-7.5-7.5-7.5
	s-7.5,3.358-7.5,7.5v46.215c-2.639,1.627-5.481,2.984-8.508,3.995c-19.894,6.646-33.459,25.006-33.753,45.69
	c-0.385,27.012,21.623,49.304,49.061,49.695c27.439,0.391,50.076-21.267,50.46-48.278
	C243.414,402.021,230.377,383.281,210.68,376.07z"/>
<path style="fill:#02BFE9;" d="M223.591,136.721V37.465c0-16.549-13.536-29.965-30.233-29.965s-30.233,13.416-30.233,29.965v99.256
	H223.591z"/>
<g style="opacity:0.1;">
	<path style="fill:#1B003F;" d="M123.273,432.653c0-33.78,21.611-64.038,53.777-75.294c4.073-1.426,6.8-5.268,6.8-9.581V48.124
		c0-10.926,9.007-19.814,20.078-19.814c9.679,0,17.779,6.793,19.664,15.803v-6.648c0-16.549-13.536-29.965-30.233-29.965
		s-30.233,13.416-30.233,29.965V337.12c-35.286,12.348-60.578,45.677-60.578,84.875c0,49.707,40.657,90.005,90.81,90.005
		c0.482,0,0.962-0.011,1.443-0.018C154.611,507.478,123.273,473.629,123.273,432.653z"/>
</g>
<g style="opacity:0.1;">
	<path style="fill:#1B003F;" d="M213.977,460.284c-27.438-0.391-49.446-22.683-49.062-49.695
		c0.216-15.135,7.544-29.021,19.251-37.988c-2.152,1.188-4.428,2.198-6.817,2.996c-19.894,6.646-33.459,25.006-33.753,45.69
		c-0.385,27.012,21.623,49.304,49.061,49.695c12.688,0.181,24.342-4.36,33.251-11.956
		C222.077,459.898,218.083,460.342,213.977,460.284z"/>
</g>
<ellipse style="fill:#A2E8F9;" cx="288.65" cy="27.989" rx="20.672" ry="20.488"/>
<path style="fill:#02BFE9;" d="M288.65,55.977c-15.534,0-28.172-12.556-28.172-27.988C260.478,12.556,273.116,0,288.65,0
	s28.171,12.556,28.171,27.989C316.822,43.421,304.184,55.977,288.65,55.977z M288.65,15c-7.263,0-13.172,5.827-13.172,12.989
	s5.909,12.988,13.172,12.988s13.171-5.827,13.171-12.988C301.822,20.827,295.913,15,288.65,15z"/>
<path style="fill:#A2E8F9;" d="M422.668,181.107c-49.965,0-90.615-40.622-90.615-90.553C332.053,40.622,372.703,0,422.668,0
	c32.461,0,62.633,17.536,78.743,45.766c2.053,3.598,0.801,8.178-2.796,10.232c-3.599,2.051-8.179,0.801-10.231-2.797
	C474.936,29.638,449.756,15,422.668,15c-41.694,0-75.615,33.893-75.615,75.554c0,41.66,33.921,75.553,75.615,75.553
	c27.088,0,52.268-14.638,65.716-38.2c2.052-3.598,6.633-4.849,10.231-2.797c3.598,2.053,4.85,6.634,2.796,10.231
	C485.301,163.571,455.129,181.107,422.668,181.107z"/>
<path style="fill:#02BFE9;" d="M360.053,268.678l-30.615-17.668l30.615-17.668c3.588-2.07,4.818-6.657,2.748-10.245
	c-2.071-3.588-6.659-4.817-10.245-2.748l-30.624,17.673v-35.339c0-4.142-3.358-7.5-7.5-7.5s-7.5,3.358-7.5,7.5v35.338L276.31,220.35
	c-3.588-2.069-8.174-0.841-10.245,2.748c-2.07,3.587-0.84,8.174,2.748,10.245l30.615,17.668l-30.615,17.668
	c-3.588,2.071-4.818,6.657-2.748,10.245c1.389,2.407,3.911,3.753,6.503,3.753c1.272,0,2.561-0.324,3.742-1.005L306.932,264v35.34
	c0,4.142,3.358,7.5,7.5,7.5s7.5-3.358,7.5-7.5v-35.341l30.624,17.673c1.181,0.681,2.47,1.005,3.742,1.005
	c2.592,0,5.114-1.346,6.503-3.753C364.871,275.335,363.641,270.749,360.053,268.678z"/>
<g>
</g>
<g>
</g>
<g>
</g>
<g>
</g>
<g>
</g>
<g>
</g>
<g>
</g>
<g>
</g>
<g>
</g>
<g>
</g>
<g>
</g>
<g>
</g>
<g>
</g>
<g>
</g>
<g>
</g>
</svg>
